<svg width="55" height="23" viewBox="0 0 55 23" fill="none" xmlns="http://www.w3.org/2000/svg">
    <path
        d="M10.4896 3.35547C11.0286 2.7041 11.4217 1.79443 11.4217 0.884766C11.4217 0.76123 11.4105 0.637695 11.388 0.536621C10.5008 0.570312 9.43389 1.13184 8.79376 1.88428C8.28839 2.45703 7.82794 3.35547 7.82794 4.27637C7.82794 4.41113 7.8504 4.5459 7.86163 4.59082C7.91778 4.60205 8.00762 4.61328 8.09747 4.61328C8.89483 4.61328 9.89434 4.07422 10.4896 3.35547ZM11.1185 4.8042C9.78204 4.8042 8.69268 5.61279 8.00762 5.61279C7.26641 5.61279 6.28936 4.84912 5.13262 4.84912C2.93145 4.84912 0.696589 6.66846 0.696589 10.105C0.696589 12.2388 1.52764 14.4961 2.54962 15.9561C3.42559 17.1914 4.18926 18.2021 5.28985 18.2021C6.37921 18.2021 6.86212 17.4722 8.221 17.4722C9.60235 17.4722 9.90557 18.1797 11.1185 18.1797C12.3089 18.1797 13.1063 17.0791 13.8587 16.001C14.701 14.7656 15.0491 13.5527 15.0716 13.4966C14.993 13.4741 12.7132 12.542 12.7132 9.92529C12.7132 7.65674 14.5101 6.63477 14.6111 6.55615C13.4207 4.84912 11.6126 4.8042 11.1185 4.8042ZM19.0706 1.79443V18H21.968V12.6431H25.4832C28.7625 12.6431 31.0535 10.4531 31.0535 7.25244C31.0535 3.99561 28.8411 1.79443 25.6067 1.79443H19.0706ZM21.968 4.16406H24.843C26.9319 4.16406 28.1111 5.24219 28.1111 7.25244C28.1111 9.20654 26.8982 10.3071 24.8318 10.3071H21.968V4.16406ZM35.6701 18.2021C37.2761 18.2021 38.6238 17.5059 39.3088 16.3154H39.4997V18H42.1838V9.61084C42.1838 7.0166 40.4094 5.48926 37.2536 5.48926C34.3337 5.48926 32.301 6.85938 32.0764 9.00439H34.7043C34.9626 8.16211 35.8386 7.70166 37.1189 7.70166C38.6238 7.70166 39.4324 8.38672 39.4324 9.61084V10.6665L36.2654 10.8574C33.2781 11.0259 31.6047 12.3174 31.6047 14.5186C31.6047 16.7646 33.3005 18.2021 35.6701 18.2021ZM36.49 16.0571C35.2546 16.0571 34.3674 15.4395 34.3674 14.3838C34.3674 13.3618 35.0974 12.7891 36.6584 12.688L39.4324 12.4971V13.4966C39.4324 14.9565 38.1745 16.0571 36.49 16.0571ZM45.2844 22.4473C48.0358 22.4473 49.3498 21.4478 50.3942 18.4268L54.8303 5.7251H51.8879L49.0241 15.3608H48.8332L45.9582 5.7251H42.9035L47.2946 18.0449L47.1486 18.6177C46.7893 19.7744 46.1267 20.2236 44.9475 20.2236C44.7565 20.2236 44.341 20.2124 44.1838 20.1899V22.4023C44.3635 22.436 45.1159 22.4473 45.2844 22.4473Z"
        fill="white" />
</svg>
