<svg width="74" height="88" viewBox="0 0 74 88" fill="none" xmlns="http://www.w3.org/2000/svg">
<path d="M31.8038 27.3738C32.0869 27.1925 32.3755 27.0263 32.6676 26.8765C30.9975 27.7243 29.5973 29.0212 28.6237 30.6212L5.52098 68.4029C4.09945 70.7236 3.63474 73.5058 4.22494 76.1625C4.81514 78.8192 6.41457 81.143 8.68502 82.6435C10.2747 83.676 12.1294 84.2259 14.025 84.2268C15.7411 84.2194 17.4265 83.7702 18.9188 82.9225C20.411 82.0749 21.6598 80.8573 22.545 79.3871L37.1423 55.5104L28.6427 41.6068C27.2202 39.2879 26.7547 36.5069 27.3445 33.8511C27.9342 31.1953 29.5335 28.8727 31.8038 27.3738V27.3738Z" stroke="#74CEB7" stroke-width="6" stroke-miterlimit="10"/>
<path d="M42.4764 27.3738C42.1908 27.192 41.902 27.0263 41.6104 26.8765C43.2803 27.7248 44.6803 29.0215 45.6543 30.6212L68.7556 68.4029C70.1769 70.7236 70.6415 73.5054 70.0516 76.162C69.4617 78.8187 67.8629 81.1425 65.593 82.6435C64.0027 83.6759 62.1477 84.2258 60.2516 84.2268C58.5357 84.2192 56.8505 83.7701 55.3586 82.9224C53.8666 82.0748 52.618 80.8572 51.733 79.3871L37.1343 55.5104L45.6353 41.6068C47.058 39.2881 47.5238 36.5072 46.9343 33.8514C46.3448 31.1956 44.7465 28.8729 42.4764 27.3738V27.3738Z" stroke="#FF3D7F" stroke-width="6" stroke-miterlimit="10"/>
<path d="M42.4761 27.3739C42.1905 27.1922 41.9013 27.0259 41.6087 26.8751L41.5487 26.8452C41.2926 26.7149 41.0319 26.6025 40.7698 26.4977C40.7009 26.4707 40.6332 26.4422 40.5643 26.4168C40.3471 26.3359 40.1298 26.267 39.9126 26.2026C39.8002 26.1696 39.69 26.1352 39.5761 26.1067C39.3934 26.0588 39.209 26.0213 39.0217 25.9854C38.8809 25.9569 38.7384 25.9285 38.5961 25.9075C38.4298 25.8805 38.2606 25.8655 38.0929 25.8491C37.9251 25.8326 37.7813 25.8176 37.624 25.8086C37.4668 25.7996 37.3009 25.8011 37.1391 25.8011C36.9774 25.8011 36.8153 25.8011 36.6535 25.8086C36.4917 25.8161 36.339 25.8326 36.1832 25.8491C36.0274 25.8655 35.8477 25.8805 35.6814 25.9075C35.5152 25.9345 35.3966 25.9569 35.2543 25.9854C35.0686 26.0213 34.8842 26.0588 34.6999 26.1067C34.5876 26.1352 34.4758 26.1696 34.3649 26.2026C34.1462 26.267 33.9289 26.3359 33.7147 26.4168C33.6443 26.4422 33.5767 26.4707 33.5063 26.4977C33.2441 26.6025 32.9849 26.7149 32.7288 26.8452C32.7078 26.8542 32.6883 26.8662 32.6674 26.8766C32.3753 27.0264 32.0867 27.1927 31.8036 27.3739C29.5336 28.8723 27.9345 31.1942 27.3442 33.8493C26.7539 36.5044 27.2182 39.285 28.6395 41.6041L37.1391 55.5076L45.6409 41.6041C47.0621 39.2848 47.5268 36.5041 46.9362 33.849C46.3457 31.1938 44.7464 28.8721 42.4761 27.3739V27.3739Z" stroke="#333333" stroke-width="6" stroke-miterlimit="10"/>
<path d="M20.5564 5.57342C21.0535 4.78255 21.7442 4.1313 22.5627 3.68106C23.3811 3.23083 24.3004 2.99647 25.2345 3.00004L49.0722 3.05544C49.7967 3.05721 50.5137 3.20169 51.1823 3.48057C51.851 3.75945 52.4581 4.16731 52.9691 4.68084C53.4802 5.19437 53.885 5.8035 54.1606 6.4735C54.4362 7.14351 54.5771 7.86126 54.5753 8.58574C54.5735 9.31021 54.4292 10.0272 54.1503 10.6959C53.8715 11.3645 53.4636 11.9717 52.9501 12.4827C52.4366 12.9938 51.8275 13.3987 51.1575 13.6743C50.4874 13.9499 49.7696 14.0908 49.0452 14.089L25.2133 14.0336C24.2273 14.032 23.2604 13.7662 22.412 13.2639C21.5636 12.7615 20.8651 12.0409 20.3897 11.1772C19.9142 10.3134 19.6786 9.33804 19.708 8.35251C19.7374 7.36699 20.0304 6.40733 20.5564 5.57342V5.57342Z" stroke="#333333" stroke-width="6" stroke-miterlimit="10"/>
</svg>
