<svg width="17" height="16" viewBox="0 0 17 16" fill="none" xmlns="http://www.w3.org/2000/svg">
<path fill-rule="evenodd" clip-rule="evenodd" d="M8.07123 14.6666C11.7859 14.6666 14.7972 11.6819 14.7972 7.99998C14.7972 4.31808 11.7859 1.33331 8.07123 1.33331C4.35655 1.33331 1.34521 4.31808 1.34521 7.99998C1.34521 11.6819 4.35655 14.6666 8.07123 14.6666ZM8.97123 4.33331C8.97123 3.83626 8.56828 3.43331 8.07123 3.43331C7.57417 3.43331 7.17123 3.83626 7.17123 4.33331V7.99998C7.17123 8.24006 7.26715 8.47018 7.43766 8.63919L9.45546 10.6392C9.80849 10.9891 10.3783 10.9866 10.7282 10.6335C11.0782 10.2805 11.0756 9.71068 10.7226 9.36077L8.97123 7.62485V4.33331Z" fill="#29465B" fill-opacity="0.5"/>
</svg>
