<svg height="15" viewBox="0 0 21 15" width="21" xmlns="http://www.w3.org/2000/svg">
    <g fill="none" fill-rule="evenodd">
        <g fill="#FFF" fill-rule="nonzero">
            <g>
                <path
                    d="M502.557 21.954c-.266-.269-.628-.42-1.006-.42-.377 0-.74.151-1.005.42L489.99 32.522l-4.434-4.448c-.372-.36-.907-.493-1.404-.35-.498.142-.881.539-1.006 1.04-.126.502.027 1.033.399 1.392l5.44 5.44c.266.268.628.42 1.005.42.378 0 .74-.152 1.006-.42l11.56-11.56c.29-.268.456-.646.456-1.041 0-.396-.165-.773-.456-1.041z"
                    transform="translate(-638 -1038) translate(155.5 1017)" />
            </g>
        </g>
    </g>
</svg>
