<svg width="22" height="22" viewBox="0 0 22 22" fill="none" xmlns="http://www.w3.org/2000/svg">
<path fill-rule="evenodd" clip-rule="evenodd" d="M0 0.9C0 0.402944 0.402944 0 0.9 0H4.9C5.24089 0 5.55253 0.192602 5.70498 0.497508L7.70623 4.5H11.5825C12.0051 2.22367 14.0012 0.5 16.4 0.5C19.1062 0.5 21.3 2.6938 21.3 5.4C21.3 8.1062 19.1062 10.3 16.4 10.3C15.5899 10.3 14.8258 10.1034 14.1526 9.75539L13.6104 10.4525L10.3 14.7088V19.5H12.4C12.8971 19.5 13.3 19.9029 13.3 20.4C13.3 20.8971 12.8971 21.3 12.4 21.3H9.4H6.4C5.90294 21.3 5.5 20.8971 5.5 20.4C5.5 19.9029 5.90294 19.5 6.4 19.5H8.5V14.7088L5.18958 10.4525L1.68958 5.95255C1.47855 5.68121 1.44049 5.31337 1.59152 5.00458C1.74254 4.6958 2.05626 4.5 2.4 4.5H5.69377L4.34377 1.8H0.9C0.402944 1.8 0 1.39706 0 0.9ZM15.2886 8.29483C15.6336 8.42737 16.0083 8.5 16.4 8.5C18.1121 8.5 19.5 7.11208 19.5 5.4C19.5 3.68792 18.1121 2.3 16.4 2.3C15.0009 2.3 13.8183 3.22683 13.4327 4.5H16.4C16.7437 4.5 17.0575 4.6958 17.2085 5.00458C17.3595 5.31337 17.3215 5.68121 17.1104 5.95255L15.2886 8.29483ZM6.59377 6.3H4.24018L6.34018 9H7.94377L6.59377 6.3ZM9.95623 9H12.4598L14.5598 6.3H8.60623L9.95623 9Z" fill="#FF414E"/>
</svg>
