<svg width="24" height="24" viewBox="0 0 24 24" fill="none" xmlns="http://www.w3.org/2000/svg">
<path fill-rule="evenodd" clip-rule="evenodd" d="M12 3.10501C12.4943 3.10501 12.895 3.50572 12.895 4.00001V7.00001C12.895 7.49431 12.4943 7.89501 12 7.89501C11.5057 7.89501 11.105 7.49431 11.105 7.00001V4.00001C11.105 3.50572 11.5057 3.10501 12 3.10501ZM7.99998 5.10501C8.49428 5.10501 8.89498 5.50572 8.89498 6.00001V9.00001C8.89498 9.49431 8.49428 9.89501 7.99998 9.89501C7.50569 9.89501 7.10498 9.49431 7.10498 9.00001V6.00001C7.10498 5.50572 7.50569 5.10501 7.99998 5.10501ZM5.51084 15.105H4.01799C4.00554 15.1047 3.99307 15.1047 3.98059 15.105H0.99998C0.505686 15.105 0.10498 15.5057 0.10498 16C0.10498 16.4943 0.505686 16.895 0.99998 16.895H3.47555C3.51342 16.9585 3.55507 17.0268 3.6004 17.0994C3.85237 17.5025 4.22408 18.0438 4.70142 18.5894C5.62322 19.6428 7.10042 20.895 8.99998 20.895H9.01752H9.035H9.05241H9.06975H9.08702H9.10422H9.12136H9.13843H9.15544H9.17237H9.18925H9.20605H9.22279H9.23947H9.25608H9.27262H9.28911H9.30552H9.32188H9.33817H9.35439H9.37056H9.38666H9.4027H9.41867H9.43459H9.45044H9.46623H9.48196H9.49763H9.51324H9.52879H9.54428H9.55971H9.57508H9.59038H9.60563H9.62083H9.63596H9.65104H9.66605H9.68101H9.69591H9.71076H9.72555H9.74028H9.75495H9.76957H9.78414H9.79864H9.8131H9.82749H9.84184H9.85612H9.87036H9.88454H9.89867H9.91274H9.92676H9.94073H9.95464H9.9685H9.98232H9.99607H10.0098H10.0234H10.037H10.0506H10.0641H10.0776H10.091H10.1043H10.1176H10.1309H10.1441H10.1572H10.1703H10.1834H10.1964H10.2094H10.2223H10.2352H10.248H10.2608H10.2735H10.2862H10.2989H10.3115H10.324H10.3365H10.349H10.3614H10.3738H10.3861H10.3984H10.4106H10.4228H10.435H10.4471H10.4592H10.4712H10.4832H10.4951H10.5071H10.5189H10.5307H10.5425H10.5543H10.566H10.5777H10.5893H10.6009H10.6124H10.6239H10.6354H10.6468H10.6582H10.6696H10.6809H10.6922H10.7035H10.7147H10.7259H10.737H10.7481H10.7592H10.7702H10.7812H10.7922H10.8031H10.814H10.8249H10.8357H10.8465H10.8573H10.868H10.8787H10.8894H10.9001H10.9107H10.9212H10.9318H10.9423H10.9528H10.9633H10.9737H10.9841H10.9944H11.0048H11.0151H11.0254H11.0356H11.0459H11.0561H11.0662H11.0764H11.0865H11.0966H11.1066H11.1167H11.1267H11.1367H11.1466H11.1566H11.1665H11.1764H11.1862H11.1961H11.2059H11.2157H11.2255H11.2352H11.2449H11.2546H11.2643H11.274H11.2836H11.2932H11.3028H11.3124H11.3219H11.3315H11.341H11.3505H11.36H11.3694H11.3788H11.3883H11.3977H11.4071H11.4164H11.4258H11.4351H11.4444H11.4537H11.463H11.4722H11.4815H11.4907H11.4999H11.5091H11.5183H11.5275H11.5367H11.5458H11.5549H11.5641H11.5732H11.5823H11.5913H11.6004H11.6095H11.6185H11.6275H11.6365H11.6456H11.6546H11.6635H11.6725H11.6815H11.6904H11.6994H11.7083H11.7173H11.7262H11.7351H11.744H11.7529H11.7618H11.7707H11.7796H11.7884H11.7973H11.8061H11.815H11.8238H11.8327H11.8415H11.8503H11.8592H11.868H11.8768H11.8856H11.8944H11.9032H11.912H11.9208H11.9296H11.9384H11.9472H11.956H11.9648H11.9736H11.9824H11.9912H12H12.0088H12.0176H12.0263H12.0351H12.0439H12.0527H12.0615H12.0703H12.0791H12.0879H12.0967H12.1055H12.1143H12.1231H12.132H12.1408H12.1496H12.1584H12.1673H12.1761H12.185H12.1938H12.2027H12.2115H12.2204H12.2293H12.2382H12.2471H12.256H12.2649H12.2738H12.2827H12.2916H12.3006H12.3095H12.3185H12.3274H12.3364H12.3454H12.3544H12.3634H12.3724H12.3815H12.3905H12.3996H12.4086H12.4177H12.4268H12.4359H12.445H12.4542H12.4633H12.4725H12.4816H12.4908H12.5H12.5092H12.5185H12.5277H12.537H12.5463H12.5556H12.5649H12.5742H12.5835H12.5929H12.6023H12.6117H12.6211H12.6305H12.64H12.6495H12.659H12.6685H12.678H12.6876H12.6971H12.7067H12.7164H12.726H12.7357H12.7453H12.755H12.7648H12.7745H12.7843H12.7941H12.8039H12.8137H12.8236H12.8335H12.8434H12.8533H12.8633H12.8733H12.8833H12.8933H12.9034H12.9135H12.9236H12.9337H12.9439H12.9541H12.9643H12.9746H12.9849H12.9952H13.0055H13.0159H13.0263H13.0367H13.0472H13.0576H13.0682H13.0787H13.0893H13.0999H13.1105H13.1212H13.1319H13.1427H13.1534H13.1642H13.1751H13.1859H13.1968H13.2078H13.2187H13.2297H13.2408H13.2518H13.263H13.2741H13.2853H13.2965H13.3077H13.319H13.3304H13.3417H13.3531H13.3646H13.376H13.3875H13.3991H13.4107H13.4223H13.434H13.4457H13.4574H13.4692H13.481H13.4929H13.5048H13.5168H13.5288H13.5408H13.5529H13.565H13.5771H13.5893H13.6016H13.6139H13.6262H13.6386H13.651H13.6635H13.676H13.6885H13.7011H13.7137H13.7264H13.7392H13.7519H13.7648H13.7776H13.7906H13.8035H13.8165H13.8296H13.8427H13.8559H13.8691H13.8823H13.8956H13.909H13.9224H13.9359H13.9494H13.9629H13.9765H13.9902H14.0039H14.0176H14.0315H14.0453H14.0592H14.0732H14.0872H14.1013H14.1154H14.1296H14.1438H14.1581H14.1725H14.1869H14.2013H14.2158H14.2304H14.245H14.2597H14.2744H14.2892H14.304H14.3189H14.3339H14.3489H14.364H14.3791H14.3943H14.4096H14.4249H14.4403H14.4557H14.4712H14.4867H14.5023H14.518H14.5337H14.5495H14.5654H14.5813H14.5973H14.6133H14.6294H14.6456H14.6618H14.6781H14.6944H14.7109H14.7273H14.7439H14.7605H14.7772H14.7939H14.8107H14.8276H14.8445H14.8615H14.8786H14.8957H14.9129H14.9302H14.9476H14.965H14.9824H15C16.8995 20.895 18.3767 19.6428 19.2985 18.5894C19.7759 18.0438 20.1476 17.5025 20.3996 17.0994C20.4449 17.0268 20.4865 16.9585 20.5244 16.895H23C23.4943 16.895 23.895 16.4943 23.895 16C23.895 15.5057 23.4943 15.105 23 15.105H20.0194C20.0069 15.1047 19.9944 15.1047 19.982 15.105H18.489C17.5514 12.7408 14.9081 11.15 11.9999 11.15C9.0918 11.15 6.44847 12.7408 5.51084 15.105ZM16.895 6.00001C16.895 5.50572 16.4943 5.10501 16 5.10501C15.5057 5.10501 15.105 5.50572 15.105 6.00001V9.00001C15.105 9.49431 15.5057 9.89501 16 9.89501C16.4943 9.89501 16.895 9.49431 16.895 9.00001V6.00001ZM6.04854 17.4106C5.8968 17.2372 5.75698 17.0632 5.63004 16.895H18.3699C18.243 17.0632 18.1032 17.2372 17.9514 17.4106C17.1232 18.3572 16.1004 19.105 15 19.105H14.9824H14.965H14.9476H14.9302H14.9129H14.8957H14.8786H14.8615H14.8445H14.8276H14.8107H14.7939H14.7772H14.7605H14.7439H14.7273H14.7109H14.6944H14.6781H14.6618H14.6456H14.6294H14.6133H14.5973H14.5813H14.5654H14.5495H14.5337H14.518H14.5023H14.4867H14.4712H14.4557H14.4403H14.4249H14.4096H14.3943H14.3791H14.364H14.3489H14.3339H14.3189H14.304H14.2892H14.2744H14.2597H14.245H14.2304H14.2158H14.2013H14.1869H14.1725H14.1581H14.1438H14.1296H14.1154H14.1013H14.0872H14.0732H14.0592H14.0453H14.0315H14.0176H14.0039H13.9902H13.9765H13.9629H13.9494H13.9359H13.9224H13.909H13.8956H13.8823H13.8691H13.8559H13.8427H13.8296H13.8165H13.8035H13.7906H13.7776H13.7648H13.7519H13.7392H13.7264H13.7137H13.7011H13.6885H13.676H13.6635H13.651H13.6386H13.6262H13.6139H13.6016H13.5893H13.5771H13.565H13.5529H13.5408H13.5288H13.5168H13.5048H13.4929H13.481H13.4692H13.4574H13.4457H13.434H13.4223H13.4107H13.3991H13.3875H13.376H13.3646H13.3531H13.3417H13.3304H13.319H13.3077H13.2965H13.2853H13.2741H13.263H13.2518H13.2408H13.2297H13.2187H13.2078H13.1968H13.1859H13.1751H13.1642H13.1534H13.1427H13.1319H13.1212H13.1105H13.0999H13.0893H13.0787H13.0682H13.0576H13.0472H13.0367H13.0263H13.0159H13.0055H12.9952H12.9849H12.9746H12.9643H12.9541H12.9439H12.9337H12.9236H12.9135H12.9034H12.8933H12.8833H12.8733H12.8633H12.8533H12.8434H12.8335H12.8236H12.8137H12.8039H12.7941H12.7843H12.7745H12.7648H12.755H12.7453H12.7357H12.726H12.7164H12.7067H12.6971H12.6876H12.678H12.6685H12.659H12.6495H12.64H12.6305H12.6211H12.6117H12.6023H12.5929H12.5835H12.5742H12.5649H12.5556H12.5463H12.537H12.5277H12.5185H12.5092H12.5H12.4908H12.4816H12.4725H12.4633H12.4542H12.445H12.4359H12.4268H12.4177H12.4086H12.3996H12.3905H12.3815H12.3724H12.3634H12.3544H12.3454H12.3364H12.3274H12.3185H12.3095H12.3006H12.2916H12.2827H12.2738H12.2649H12.256H12.2471H12.2382H12.2293H12.2204H12.2115H12.2027H12.1938H12.185H12.1761H12.1673H12.1584H12.1496H12.1408H12.132H12.1231H12.1143H12.1055H12.0967H12.0879H12.0791H12.0703H12.0615H12.0527H12.0439H12.0351H12.0263H12.0176H12.0088H12H11.9912H11.9824H11.9736H11.9648H11.956H11.9472H11.9384H11.9296H11.9208H11.912H11.9032H11.8944H11.8856H11.8768H11.868H11.8592H11.8503H11.8415H11.8327H11.8238H11.815H11.8061H11.7973H11.7884H11.7796H11.7707H11.7618H11.7529H11.744H11.7351H11.7262H11.7173H11.7083H11.6994H11.6904H11.6815H11.6725H11.6635H11.6546H11.6456H11.6365H11.6275H11.6185H11.6095H11.6004H11.5913H11.5823H11.5732H11.5641H11.5549H11.5458H11.5367H11.5275H11.5183H11.5091H11.4999H11.4907H11.4815H11.4722H11.463H11.4537H11.4444H11.4351H11.4258H11.4164H11.4071H11.3977H11.3883H11.3788H11.3694H11.36H11.3505H11.341H11.3315H11.3219H11.3124H11.3028H11.2932H11.2836H11.274H11.2643H11.2546H11.2449H11.2352H11.2255H11.2157H11.2059H11.1961H11.1862H11.1764H11.1665H11.1566H11.1466H11.1367H11.1267H11.1167H11.1066H11.0966H11.0865H11.0764H11.0662H11.0561H11.0459H11.0356H11.0254H11.0151H11.0048H10.9944H10.9841H10.9737H10.9633H10.9528H10.9423H10.9318H10.9212H10.9107H10.9001H10.8894H10.8787H10.868H10.8573H10.8465H10.8357H10.8249H10.814H10.8031H10.7922H10.7812H10.7702H10.7592H10.7481H10.737H10.7259H10.7147H10.7035H10.6922H10.6809H10.6696H10.6582H10.6468H10.6354H10.6239H10.6124H10.6009H10.5893H10.5777H10.566H10.5543H10.5425H10.5307H10.5189H10.5071H10.4951H10.4832H10.4712H10.4592H10.4471H10.435H10.4228H10.4106H10.3984H10.3861H10.3738H10.3614H10.349H10.3365H10.324H10.3115H10.2989H10.2862H10.2735H10.2608H10.248H10.2352H10.2223H10.2094H10.1964H10.1834H10.1703H10.1572H10.1441H10.1309H10.1176H10.1043H10.091H10.0776H10.0641H10.0506H10.037H10.0234H10.0098H9.99607H9.98232H9.9685H9.95464H9.94073H9.92676H9.91274H9.89867H9.88454H9.87036H9.85612H9.84184H9.82749H9.8131H9.79864H9.78414H9.76957H9.75495H9.74028H9.72555H9.71076H9.69591H9.68101H9.66605H9.65104H9.63596H9.62083H9.60563H9.59038H9.57508H9.55971H9.54428H9.52879H9.51324H9.49763H9.48196H9.46623H9.45044H9.43459H9.41867H9.4027H9.38666H9.37056H9.35439H9.33817H9.32188H9.30552H9.28911H9.27262H9.25608H9.23947H9.22279H9.20605H9.18925H9.17237H9.15544H9.13843H9.12136H9.10422H9.08702H9.06975H9.05241H9.035H9.01752H8.99998C7.89954 19.105 6.87675 18.3572 6.04854 17.4106Z" fill="#FF414E"/>
</svg>
