<svg width="24" height="25" viewBox="0 0 24 25" fill="none" xmlns="http://www.w3.org/2000/svg">
<path fill-rule="evenodd" clip-rule="evenodd" d="M12.5617 21.1001C14.2235 19.7648 19 15.4962 19 10.546C19 6.68486 15.866 3.55475 12 3.55475C8.13401 3.55475 5 6.68486 5 10.546C5 15.4962 9.77651 19.7648 11.4383 21.1001C11.771 21.3674 12.229 21.3674 12.5617 21.1001ZM12 13.5423C13.6569 13.5423 15 12.2008 15 10.546C15 8.89125 13.6569 7.54977 12 7.54977C10.3431 7.54977 9 8.89125 9 10.546C9 12.2008 10.3431 13.5423 12 13.5423Z" fill="#FF414E"/>
</svg>
