<svg width="34" height="22" viewBox="0 0 34 22" fill="none" xmlns="http://www.w3.org/2000/svg">
<path d="M21.5914 2.2278H12.4233V18.7462H21.5914V2.2278Z" fill="#FF5F00"/>
<path d="M12.9766 10.5265C12.9766 7.28605 14.4783 4.28271 17.0074 2.22779C12.4234 -1.3288 5.86342 -0.538434 2.22779 3.96658C-1.3288 8.55063 -0.538434 15.1106 3.96658 18.7462C7.76028 21.7495 13.1347 21.7495 16.9284 18.7462C14.4783 16.7703 12.9766 13.767 12.9766 10.5265Z" fill="#EB001B"/>
<path d="M34 10.5265C34 16.2961 29.3369 21.0382 23.4883 21.0382C21.1172 21.0382 18.8252 20.2478 17.0074 18.8252C21.5914 15.2686 22.3818 8.62967 18.7462 4.12466C18.1929 3.49238 17.6397 2.86009 17.0074 2.38587C21.5914 -1.17072 28.1513 -0.380353 31.7079 4.12466C33.2096 5.86344 34 8.15544 34 10.5265Z" fill="#F79E1B"/>
</svg>
