<svg width="136" height="79" viewBox="0 0 136 79" fill="none" xmlns="http://www.w3.org/2000/svg">
<rect x="0.5" y="0.5" width="135" height="77.0328" rx="3.5" fill="white" stroke="#F1F1F1"/>
<rect x="110.335" y="18.1029" width="3.29796" height="22.1283" rx="1.64898" fill="#29465B"/>
<rect x="93.5261" y="40.2312" width="3.29796" height="20.1069" rx="1.64898" transform="rotate(-90 93.5261 40.2312)" fill="#29465B"/>
<rect x="93.5261" y="36.9332" width="3.29796" height="16.809" rx="1.64898" transform="rotate(-90 93.5261 36.9332)" fill="#FF414E"/>
<rect x="107.037" y="16.8263" width="3.29796" height="20.1069" rx="1.64898" fill="#FF414E"/>
<rect x="110.335" y="38.7418" width="0.638315" height="22.781" rx="0.319158" transform="rotate(-10.2065 110.335 38.7418)" fill="#29465B"/>
<rect width="0.638315" height="22.781" rx="0.319158" transform="matrix(-0.984176 -0.177196 -0.177196 0.984176 98.191 38.7418)" fill="#29465B"/>
<rect width="0.638315" height="22.781" rx="0.319158" transform="matrix(1 0 0 -1 103.314 61.2859)" fill="#29465B"/>
<rect width="0.638314" height="18.8303" rx="0.319157" transform="matrix(-4.37114e-08 1 1 4.37114e-08 94.8027 46.4016)" fill="#29465B"/>
<rect width="3.29796" height="22.1283" rx="1.64898" transform="matrix(-1 0 0 1 25.6359 17.9965)" fill="#29465B"/>
<rect width="3.29796" height="20.1069" rx="1.64898" transform="matrix(4.37114e-08 -1 -1 -4.37114e-08 42.4448 40.1247)" fill="#29465B"/>
<rect width="3.29796" height="16.809" rx="1.64898" transform="matrix(4.37114e-08 -1 -1 -4.37114e-08 42.4448 36.8268)" fill="#FF414E"/>
<rect width="3.29796" height="20.1069" rx="1.64898" transform="matrix(-1 0 0 1 28.9498 16.7198)" fill="#FF414E"/>
<rect width="0.638315" height="22.781" rx="0.319158" transform="matrix(-0.984176 -0.177196 -0.177196 0.984176 25.6359 38.6353)" fill="#29465B"/>
<rect x="37.7798" y="38.6353" width="0.638315" height="22.781" rx="0.319158" transform="rotate(-10.2065 37.7798 38.6353)" fill="#29465B"/>
<rect x="32.6572" y="61.1795" width="0.638315" height="22.781" rx="0.319158" transform="rotate(180 32.6572 61.1795)" fill="#29465B"/>
<rect x="68.7382" y="61.1891" width="1.4894" height="22.7666" rx="0.744701" transform="rotate(180 68.7382 61.1891)" fill="#29465B"/>
<rect x="41.1682" y="46.2951" width="0.638314" height="18.8303" rx="0.319157" transform="rotate(90 41.1682 46.2951)" fill="#29465B"/>
<rect x="77.4618" y="59.6998" width="1.4894" height="18.8303" rx="0.744701" transform="rotate(90 77.4618 59.6998)" fill="#29465B"/>
<path d="M48.7979 25.6354C49.0051 23.5931 50.7247 22.0392 52.7775 22.0392H82.9918C85.0058 22.0392 86.7057 23.5366 86.9598 25.5345L89.0883 42.2683C89.1387 42.6646 89.1316 43.0649 89.0227 43.4493C88.4812 45.3592 86.1436 51.3382 77.9939 51.9213C73.7503 52.2249 72.3427 46.8238 68.1039 46.4349C63.7038 46.0312 61.6821 50.85 57.2867 50.3766C55.0194 50.1324 51.1339 47.8765 48.7892 46.3955C47.5601 45.6191 46.9138 44.206 47.0605 42.7597L48.7979 25.6354Z" fill="#F8F8F8"/>
<path d="M76.312 50.0867L76.3121 35.8825" stroke="#B0AEAF"/>
<path d="M63.067 47.2143V32.4267" stroke="#B0AEAF"/>
</svg>
