<svg width="13" height="15" viewBox="0 0 13 15" fill="none" xmlns="http://www.w3.org/2000/svg">
<g clip-path="url(#clip0)">
<path d="M5.6669 2.55213C5.92801 1.94997 6.78196 1.94997 7.04308 2.55213L8.07973 4.94274C8.1884 5.19335 8.42474 5.36506 8.69668 5.39097L11.2906 5.63815C11.944 5.70041 12.2079 6.51256 11.7159 6.94697L9.76262 8.67162C9.55786 8.85242 9.46758 9.13026 9.52697 9.39689L10.0935 11.9403C10.2362 12.5809 9.5453 13.0828 8.98011 12.7492L6.73628 11.4244C6.50105 11.2856 6.20892 11.2856 5.97369 11.4244L3.72987 12.7492C3.16468 13.0828 2.47382 12.5809 2.61651 11.9403L3.18301 9.39689C3.24239 9.13026 3.15212 8.85242 2.94735 8.67162L0.994095 6.94697C0.502097 6.51256 0.765982 5.70041 1.41936 5.63815L4.0133 5.39097C4.28523 5.36506 4.52157 5.19335 4.63025 4.94274L5.6669 2.55213Z" fill="#FFDE22"/>
</g>
<defs>
<clipPath id="clip0">
<rect width="12.0463" height="13.8619" fill="white" transform="translate(0.354988 0.465332)"/>
</clipPath>
</defs>
</svg>
