<svg width="36" height="36" viewBox="0 0 36 36" fill="none" xmlns="http://www.w3.org/2000/svg">
<path fill-rule="evenodd" clip-rule="evenodd" d="M18 35.5C27.665 35.5 35.5 27.665 35.5 18C35.5 8.33502 27.665 0.5 18 0.5C8.33502 0.5 0.5 8.33502 0.5 18C0.5 27.665 8.33502 35.5 18 35.5ZM17.1861 12.5787C16.1012 12.7043 15.3018 13.3553 15.3018 14.3945C15.3018 15.2168 15.8271 15.8106 16.8664 16.1532L16.8664 16.1532C16.9692 16.1875 17.0719 16.2217 17.1861 16.2446V12.5787ZM18.9448 23.485C20.1554 23.3822 21.0119 22.6399 21.0119 21.5207C21.0119 20.5842 20.4523 19.9561 19.1732 19.6021C19.1047 19.5907 19.0248 19.5678 18.9448 19.545V23.485ZM18.9563 25.9517L18.9677 27.4021H17.1176L17.129 25.9746C13.3489 25.7005 11.9328 23.4735 11.91 21.3608H14.9021C14.9592 22.4115 15.7243 23.2908 17.1861 23.485V19.2367L16.204 19.0197C14.0798 18.5514 12.2069 17.2267 12.2069 14.6343C12.2069 11.8935 14.3768 10.3746 17.1404 10.1234V8.65015H18.9905V10.1348C21.8798 10.4431 23.7413 12.2475 23.787 14.6229H20.8634C20.8292 13.7093 20.1554 12.7957 18.9448 12.6015V16.5872L19.9156 16.7927C22.211 17.2838 24.0725 18.4487 24.0725 21.2124C24.0725 23.9304 22.0854 25.6548 18.9563 25.9517Z" fill="white"/>
</svg>
